<svg height="382pt" viewBox="0 -5 382.29333 382" width="382pt" xmlns="http://www.w3.org/2000/svg"><path d="m324.265625 214.601562h-4.863281c.921875-3.261718 1.449218-20.339843 1.449218-23.894531 0-20.734375-16.808593-37.546875-37.542968-37.546875h-16.773438c3.164063-4.699218 5.039063-10.289062 5.039063-16.320312 0-16.554688-13.851563-29.972656-30.933594-29.972656h-22.683594c-53.621093-11.988282-57.742187-59.945313-57.742187-59.945313-35.59375 17.246094-45.550782 45.425781-48.359375 59.945313l-1.136719 21.121093c0 9.617188 3.625 18.394531 9.59375 25.175781h-21.324219c-20.738281 0-37.546875 16.808594-37.546875 37.542969 0 3.554688.527344 20.636719 1.449219 23.894531h-4.863281c-28.277344 0-51.199219 29.75-51.199219 58.027344s22.921875 58.027344 51.199219 58.027344h17.066406v17.066406c0 9.425782 7.640625 17.066406 17.066406 17.066406 9.425782 0 17.066406-7.640624 17.066406-17.066406v-17.066406h215.039063c28.277344 0 51.199219-29.75 51.199219-58.027344s-22.921875-58.027344-51.199219-58.027344zm0 0" fill="#bfad88"/><g fill="#54596e"><path d="m324.265625 214.601562v-6.828124h-4.863281v6.828124l6.570312 1.859376c.285156-1.042969.394532-1.832032.527344-2.792969.414062-3.230469.683594-7.976563.882812-12.527344.191407-4.542969.296876-8.660156.296876-10.433594-.007813-24.507812-19.867188-44.371093-44.375-44.375h-16.769532v6.828125l5.664063 3.808594c3.859375-5.730469 6.203125-12.671875 6.199219-20.128906.003906-10.203125-4.296876-19.484375-11.136719-26.097656-6.835938-6.628907-16.28125-10.703126-26.621094-10.703126h-22.683594v6.828126l1.488281-6.664063c-12.476562-2.796875-21.792968-7.582031-28.933593-13.144531-10.6875-8.335938-16.574219-18.578125-19.8125-26.824219-1.609375-4.113281-2.546875-7.699219-3.070313-10.207031-.261718-1.25-.421875-2.234375-.511718-2.871094l-.089844-.691406-.015625-.140625-.828125.082031.828125-.070312v-.011719l-.828125.082031.828125-.070312c-.191407-2.230469-1.480469-4.246094-3.425781-5.351563-1.945313-1.105469-4.339844-1.183594-6.351563-.207031-18.894531 9.140625-31.300781 21.421875-39.1875 33.371094-7.90625 11.953124-11.363281 23.5-12.894531 31.421874l-.117188.929688-1.136718 21.121094-.007813.367187c-.003906 11.347657 4.300781 21.753907 11.296875 29.683594l5.121094-4.511719v-6.828125h-21.320313c-24.511719.003907-44.371093 19.867188-44.375 44.375 0 2.015625.136719 7.136719.386719 12.386719.128906 2.613281.28125 5.226562.472656 7.472656.09375 1.128906.199219 2.160156.320313 3.101563.132812.960937.242187 1.75.527343 2.792969l6.570313-1.859376v-6.828124h-4.863281c-16.621094.019531-31.1875 8.699218-41.417969 20.832031-10.253906 12.183593-16.5742188 28.03125-16.609375 44.023437.0351562 15.984375 6.355469 31.835938 16.609375 44.019532 10.230469 12.132812 24.796875 20.8125 41.417969 20.832031h10.238281v10.238281c.003906 13.199219 10.695313 23.890625 23.894531 23.894531 13.199219-.003906 23.890625-10.695312 23.894532-23.894531v-10.238281h208.210937c16.621094-.019531 31.1875-8.699219 41.421875-20.832031 10.25-12.183594 16.570312-28.03125 16.605469-44.019532-.035157-15.992187-6.355469-31.839844-16.605469-44.023437-10.234375-12.132813-24.800781-20.8125-41.421875-20.832031v13.652343c11.65625-.019531 22.691406 6.179688 30.988281 15.988281 8.277344 9.761719 13.421875 22.925782 13.386719 35.214844.035156 12.289063-5.109375 25.453125-13.386719 35.210938-8.296875 9.8125-19.332031 16.007812-30.988281 15.988281h-215.039063c-1.796874 0-3.554687.730469-4.828124 2-1.269532 1.269531-2 3.027344-2 4.824219v17.066406c-.007813 5.65625-4.585938 10.230469-10.238282 10.242188-5.65625-.011719-10.230468-4.585938-10.238281-10.242188v-17.066406c0-1.796875-.730469-3.554688-2.003906-4.828125-1.269531-1.269531-3.027344-1.996094-4.824219-1.996094h-17.066406c-11.65625.019531-22.691406-6.175781-30.988282-15.988281-8.277343-9.761719-13.417968-22.925782-13.386718-35.210938-.03125-12.289062 5.109375-25.453125 13.386718-35.214844 8.296876-9.8125 19.332032-16.007812 30.988282-15.988281h4.863281c2.144531 0 4.152344-1 5.445313-2.707031 1.292968-1.710938 1.707031-3.917969 1.125-5.980469l-.871094.246094.882812-.191406-.015625-.054688-.867187.246094.882812-.191406c-.074218-.261719-.296875-1.980469-.445312-3.949219-.484375-6.027344-.765625-15.867188-.761719-18.136719.003906-8.503906 3.429687-16.140625 8.996094-21.71875 5.582031-5.574219 13.21875-8.996093 21.722656-9h21.328125c2.675781 0 5.117188-1.578125 6.21875-4.015625 1.105469-2.4375.671875-5.3125-1.097656-7.324218-4.945313-5.628907-7.882813-12.777344-7.886719-20.660157h-6.828125l6.816406.367188 1.136719-21.121094-6.816406-.367187 6.703125 1.296874c1.273437-6.597656 4.203125-16.398437 10.875-26.480468 6.691406-10.082032 17.058594-20.511719 33.753906-28.617188l-2.976562-6.144531-6.800782.585937c.070313.605469 1.1875 13.492188 9.644532 28.289063 4.230468 7.382813 10.339843 15.230469 19.058593 22.03125 8.710938 6.800781 20.019531 12.503906 34.351563 15.703125l1.492187.164062h22.683594c6.738281 0 12.761719 2.636719 17.121094 6.855469 4.355469 4.234375 6.980469 9.941407 6.984375 16.292969-.003906 4.601562-1.414063 8.839844-3.875 12.511719-1.410156 2.09375-1.546875 4.789062-.359375 7.015625 1.1875 2.230468 3.496093 3.617187 6.023437 3.617187h16.773438c8.503906.003907 16.140625 3.429688 21.71875 9 5.574218 5.578125 8.996094 13.214844 9 21.71875 0 1.539063-.128906 6.734375-.371094 11.730469-.121094 2.507812-.269531 4.996094-.4375 6.980469-.085938.988281-.171875 1.851562-.257812 2.484375l-.109376.730468-.03125.160157.890626.195312-.875-.25-.015626.054688.886719.195312-.875-.25c-.582031 2.0625-.167969 4.269531 1.125 5.980469 1.292969 1.707031 3.300781 2.707031 5.445313 2.707031h4.863281zm0 0"/><path d="m177.492188 194.121094c0 22.621094-18.335938 40.960937-40.957032 40.960937-22.625 0-40.960937-18.339843-40.960937-40.960937s18.335937-40.960938 40.960937-40.960938c22.621094 0 40.957032 18.339844 40.957032 40.960938zm0 0"/><path d="m177.492188 194.121094h6.828124c-.003906-26.394532-21.394531-47.78125-47.785156-47.789063-26.394531.007813-47.785156 21.394531-47.789062 47.789063.003906 26.394531 21.394531 47.78125 47.789062 47.785156 26.390625-.003906 47.78125-21.390625 47.785156-47.785156h-13.652343c-.003907 9.445312-3.8125 17.9375-10 24.136718-6.199219 6.1875-14.6875 9.992188-24.132813 9.996094-9.449218-.003906-17.9375-3.8125-24.136718-9.996094-6.1875-6.199218-9.996094-14.691406-10-24.136718.003906-9.445313 3.8125-17.9375 10-24.136719 6.199218-6.1875 14.6875-9.992187 24.136718-9.996094 9.445313.003907 17.933594 3.808594 24.132813 9.996094 6.1875 6.199219 9.996093 14.691406 10 24.136719zm0 0"/><path d="m279.894531 194.121094c0 22.621094-18.339843 40.960937-40.960937 40.960937s-40.960938-18.339843-40.960938-40.960937 18.339844-40.960938 40.960938-40.960938 40.960937 18.339844 40.960937 40.960938zm0 0"/><path d="m279.894531 194.121094h6.824219c-.003906-26.394532-21.390625-47.78125-47.785156-47.789063-26.394532.007813-47.78125 21.394531-47.785156 47.789063.003906 26.394531 21.390624 47.78125 47.785156 47.785156 26.394531-.003906 47.78125-21.390625 47.785156-47.785156h-13.652344c-.003906 9.445312-3.8125 17.9375-9.996094 24.136718-6.199218 6.1875-14.691406 9.992188-24.136718 9.996094-9.445313-.003906-17.9375-3.8125-24.136719-9.996094-6.1875-6.199218-9.992187-14.691406-9.996094-24.136718.003907-9.445313 3.808594-17.9375 9.996094-24.136719 6.199219-6.1875 14.691406-9.992187 24.136719-9.996094 9.445312.003907 17.9375 3.808594 24.136718 9.996094 6.1875 6.199219 9.992188 14.691406 9.996094 24.136719zm0 0"/><path d="m157.011719 255.558594c0 18.851562 15.285156 34.136718 34.136719 34.136718 18.847656 0 34.132812-15.285156 34.132812-34.136718zm0 0"/><path d="m157.011719 255.558594h-6.824219c.003906 22.625 18.335938 40.957031 40.960938 40.960937 22.621093-.003906 40.953124-18.335937 40.957031-40.960937 0-1.796875-.726563-3.554688-2-4.828125-1.269531-1.269531-3.027344-1.996094-4.824219-1.996094h-68.269531c-1.796875 0-3.554688.726563-4.824219 1.996094-1.269531 1.273437-2 3.03125-2 4.828125h6.824219v6.828125h68.269531v-6.828125h-6.828125c-.003906 7.5625-3.046875 14.347656-8 19.308594-4.960937 4.953124-11.746094 7.996093-19.304687 8-7.5625-.003907-14.347657-3.046876-19.308594-8-4.953125-4.960938-7.996094-11.746094-8-19.308594h-6.828125v6.828125zm0 0"/></g><path d="m204.800781 276.039062c0-3.769531-6.113281-6.824218-13.652343-6.824218-7.542969 0-13.65625 3.054687-13.65625 6.824218 0 3.773438 6.113281 6.828126 13.65625 6.828126 7.539062 0 13.652343-3.054688 13.652343-6.828126zm0 0" fill="#ff927d"/><path d="m12.824219 66.414062 19.308593 19.304688c2.664063 2.667969 6.988282 2.667969 9.652344 0 2.667969-2.664062 2.667969-6.988281 0-9.652344l-19.304687-19.308594c-2.667969-2.664062-6.988281-2.664062-9.65625 0-2.664063 2.667969-2.664063 6.992188 0 9.65625" fill="#f4a14e"/><path d="m22.480469 85.722656 19.308593-19.308594c2.664063-2.664062 2.664063-6.988281 0-9.65625-2.667968-2.664062-6.988281-2.664062-9.65625 0l-19.308593 19.308594c-2.664063 2.667969-2.664063 6.988282 0 9.65625 2.667969 2.664063 6.988281 2.664063 9.65625 0" fill="#f4a14e"/><path d="m326.851562 80.066406 19.304688 19.308594c2.667969 2.664062 6.992188 2.664062 9.65625 0 2.664062-2.667969 2.664062-6.992188 0-9.65625l-19.304688-19.304688c-2.667968-2.667968-6.988281-2.667968-9.65625 0-2.664062 2.667969-2.664062 6.988282 0 9.652344" fill="#f4a14e"/><path d="m336.507812 99.375 19.304688-19.308594c2.667969-2.664062 2.667969-6.988281 0-9.652344-2.664062-2.667968-6.988281-2.667968-9.652344 0l-19.304687 19.304688c-2.667969 2.664062-2.667969 6.988281 0 9.65625 2.664062 2.664062 6.984375 2.664062 9.652343 0" fill="#f4a14e"/><path d="m251.757812 11.800781 19.308594 19.304688c2.664063 2.667969 6.988282 2.667969 9.652344 0 2.667969-2.664063 2.667969-6.988281 0-9.652344l-19.304688-19.308594c-2.667968-2.664062-6.988281-2.664062-9.65625 0-2.664062 2.667969-2.664062 6.992188 0 9.65625" fill="#f4a14e"/><path d="m261.414062 31.109375 19.308594-19.308594c2.664063-2.664062 2.664063-6.988281 0-9.65625-2.667968-2.664062-6.992187-2.664062-9.65625 0l-19.304687 19.308594c-2.667969 2.664063-2.667969 6.988281 0 9.652344 2.664062 2.667969 6.984375 2.667969 9.652343.003906" fill="#f4a14e"/><path d="m68.265625 194.121094h245.761719c3.769531 0 6.824218-3.058594 6.824218-6.828125s-3.054687-6.824219-6.824218-6.824219h-245.761719c-3.769531 0-6.824219 3.054688-6.824219 6.824219s3.054688 6.828125 6.824219 6.828125" fill="#54596e"/></svg>