<svg height="382.29333pt" viewBox="0 0 382.29333 382.29333" width="382.29333pt" xmlns="http://www.w3.org/2000/svg"><path d="m368.640625 180.90625c0 5.65625-4.585937 10.242188-10.242187 10.242188-5.652344 0-10.238282-4.585938-10.238282-10.242188s4.585938-10.238281 10.238282-10.238281c5.65625 0 10.242187 4.582031 10.242187 10.238281zm0 0" fill="#54596e"/><path d="m61.441406 146.773438c0 5.65625-4.585937 10.238281-10.242187 10.238281s-10.238281-4.582031-10.238281-10.238281 4.582031-10.238282 10.238281-10.238282 10.242187 4.582032 10.242187 10.238282zm0 0" fill="#54596e"/><path d="m324.265625 225.28125h-4.863281c.921875-3.261719 1.449218-20.339844 1.449218-23.894531 0-20.734375-16.808593-37.546875-37.542968-37.546875h-16.773438c3.164063-4.699219 5.039063-10.289063 5.039063-16.320313 0-16.554687-13.851563-29.972656-30.933594-29.972656h-22.683594c-53.621093-11.988281-57.742187-59.945313-57.742187-59.945313-35.59375 17.246094-45.550782 45.425782-48.359375 59.945313l-1.136719 21.121094c0 9.617187 3.625 18.394531 9.59375 25.171875h-21.324219c-20.738281 0-37.546875 16.8125-37.546875 37.546875 0 3.554687.527344 20.636719 1.449219 23.894531h-4.863281c-28.277344 0-51.199219 29.75-51.199219 58.027344s22.921875 58.027344 51.199219 58.027344h17.066406v17.066406c0 9.425781 7.640625 17.066406 17.066406 17.066406 9.425782 0 17.066406-7.640625 17.066406-17.066406v-17.066406h215.039063c28.277344 0 51.199219-29.75 51.199219-58.027344s-22.921875-58.027344-51.199219-58.027344zm0 0" fill="#bfad88"/><g fill="#54596e"><path d="m324.265625 225.28125v-6.828125h-4.863281v6.828125l6.570312 1.859375c.285156-1.042969.394532-1.832031.527344-2.792969.414062-3.230468.683594-7.976562.882812-12.527344.191407-4.542968.296876-8.660156.296876-10.433593-.007813-24.507813-19.867188-44.371094-44.375-44.375h-16.769532v6.828125l5.664063 3.808594c3.859375-5.730469 6.203125-12.671876 6.199219-20.128907.003906-10.203125-4.296876-19.484375-11.136719-26.097656-6.835938-6.628906-16.28125-10.703125-26.625-10.703125h-22.683594v6.828125l1.492187-6.664063c-12.476562-2.796874-21.792968-7.582031-28.933593-13.144531-10.691407-8.335937-16.578125-18.578125-19.8125-26.824219-1.613281-4.113281-2.546875-7.699218-3.070313-10.207031-.261718-1.25-.421875-2.234375-.515625-2.871093l-.085937-.691407-.015625-.140625-.832031.082032.832031-.070313v-.011719l-.832031.082032.832031-.070313c-.191407-2.230469-1.484375-4.246094-3.429688-5.351563-1.945312-1.105468-4.339843-1.183593-6.351562-.207031-18.894531 9.140625-31.296875 21.421875-39.183594 33.371094-7.90625 11.953125-11.363281 23.5-12.898437 31.421875l-.113282.929688-1.136718 21.121093-.011719.367188c-.003907 11.347656 4.304687 21.753906 11.296875 29.683593l5.125-4.511718v-6.828125h-21.320313c-24.511719.003906-44.371093 19.867187-44.375 44.375 0 2.015625.136719 7.136719.386719 12.386719.128906 2.613281.28125 5.226562.472656 7.472656.09375 1.128906.199219 2.160156.320313 3.101562.132812.960938.242187 1.75.527343 2.792969l6.570313-1.859375v-6.828125h-4.863281c-16.621094.019531-31.1875 8.699219-41.417969 20.832031-10.253906 12.183594-16.5742188 28.03125-16.609375 44.023438.0351562 15.984375 6.355469 31.835937 16.609375 44.019531 10.230469 12.132813 24.796875 20.8125 41.417969 20.832031h10.238281v10.238282c.003906 13.199218 10.695313 23.890624 23.894531 23.894531 13.199219-.003907 23.890625-10.695313 23.894532-23.894531v-10.238282h208.210937c16.621094-.019531 31.1875-8.699218 41.421875-20.832031 10.25-12.183594 16.570312-28.03125 16.605469-44.019531-.035157-15.992188-6.355469-31.839844-16.605469-44.023438-10.234375-12.132812-24.800781-20.8125-41.421875-20.832031v13.652344c11.65625-.019531 22.691406 6.175781 30.988281 15.988281 8.277344 9.761719 13.421875 22.925781 13.386719 35.214844.035156 12.289062-5.109375 25.453125-13.386719 35.210937-8.296875 9.8125-19.332031 16.007813-30.988281 15.988281h-215.039063c-1.796874 0-3.554687.730469-4.828124 2-1.269532 1.269532-2 3.027344-2 4.824219v17.066407c-.007813 5.65625-4.585938 10.230468-10.238282 10.242187-5.65625-.011719-10.230468-4.585937-10.238281-10.242187v-17.066407c0-1.796875-.730469-3.554687-2.003906-4.828125-1.269531-1.269531-3.027344-1.996094-4.824219-1.996094h-17.066406c-11.65625.019532-22.691406-6.175781-30.988282-15.988281-8.277343-9.757812-13.417968-22.925781-13.386718-35.210937-.03125-12.289063 5.109375-25.457032 13.386718-35.214844 8.296876-9.8125 19.332032-16.007812 30.988282-15.988281h4.863281c2.144531 0 4.152344-.996094 5.445313-2.707031 1.292968-1.710938 1.707031-3.914063 1.125-5.976563l-.875.246094.886718-.195313-.015625-.050781-.871093.246094.886718-.195313c-.074218-.261718-.296875-1.976562-.445312-3.945312-.484375-6.03125-.765625-15.871094-.761719-18.136719.003906-8.503906 3.425781-16.140625 8.996094-21.722656 5.582031-5.570313 13.21875-8.996094 21.722656-8.996094h21.328125c2.675781 0 5.117188-1.578125 6.21875-4.019531 1.105469-2.4375.671875-5.3125-1.097656-7.320313-4.945313-5.632812-7.882813-12.777343-7.886719-20.660156h-6.828125l6.816406.363281 1.136719-21.117187-6.816406-.367188 6.703125 1.296875c1.273437-6.601562 4.203125-16.402344 10.875-26.480468 6.691406-10.082032 17.058594-20.515626 33.753906-28.621094l-2.976562-6.144532-6.800782.585938c.070313.609375 1.1875 13.496094 9.644532 28.289062 4.230468 7.382813 10.339843 15.234376 19.058593 22.03125 8.710938 6.804688 20.019531 12.507813 34.351563 15.707032l1.488281.160156h22.6875c6.738281.003906 12.761719 2.636719 17.121094 6.855469 4.355469 4.234375 6.980469 9.941406 6.984375 16.292969-.003906 4.605468-1.414063 8.84375-3.875 12.511718-1.410156 2.097656-1.546875 4.789063-.359375 7.019532 1.1875 2.226562 3.496093 3.617187 6.023437 3.617187h16.773438c8.503906 0 16.140625 3.425781 21.71875 8.996094 5.574218 5.582031 8.996094 13.21875 9 21.722656 0 1.539063-.128906 6.730469-.371094 11.726563-.121094 2.507812-.269531 5-.4375 6.980468-.085938.988282-.171875 1.851563-.257812 2.484375l-.109376.730469-.03125.160156.890626.195313-.875-.246094-.015626.050781.886719.195313-.875-.246094c-.582031 2.0625-.167969 4.265625 1.125 5.976563 1.292969 1.710937 3.300781 2.707031 5.445313 2.707031h4.863281zm0 0"/><path d="m259.414062 23.894531c0 5.652344-4.585937 10.238281-10.242187 10.238281-5.652344 0-10.238281-4.585937-10.238281-10.238281 0-5.65625 4.585937-10.242187 10.238281-10.242187 5.65625 0 10.242187 4.585937 10.242187 10.242187zm0 0"/><path d="m300.375 92.160156c0 5.65625-4.585938 10.238282-10.242188 10.238282s-10.238281-4.582032-10.238281-10.238282 4.582031-10.238281 10.238281-10.238281 10.242188 4.582031 10.242188 10.238281zm0 0"/><path d="m143.359375 10.238281c0 5.65625-4.582031 10.242188-10.238281 10.242188s-10.242188-4.585938-10.242188-10.242188c0-5.652343 4.585938-10.238281 10.242188-10.238281s10.238281 4.585938 10.238281 10.238281zm0 0"/></g><path d="m163.839844 208.214844c0 13.195312-10.695313 23.890625-23.894532 23.890625-13.195312 0-23.890624-10.695313-23.890624-23.890625 0-13.199219 10.695312-23.894532 23.890624-23.894532 13.199219 0 23.894532 10.695313 23.894532 23.894532zm0 0" fill="#fff"/><path d="m163.839844 208.214844h6.828125c-.003907-16.972656-13.75-30.71875-30.722657-30.722656-16.96875.003906-30.714843 13.75-30.71875 30.722656.003907 16.96875 13.75 30.714844 30.71875 30.71875 16.972657-.003906 30.71875-13.75 30.722657-30.71875h-13.65625c-.015625 9.421875-7.640625 17.046875-17.066407 17.066406-9.421874-.019531-17.046874-7.644531-17.066406-17.066406.019532-9.425782 7.644532-17.050782 17.066406-17.066406 9.425782.015624 17.050782 7.640624 17.066407 17.066406zm0 0" fill="#54596e"/><path d="m150.1875 208.214844c0 5.652344-4.585938 10.238281-10.242188 10.238281-5.652343 0-10.238281-4.585937-10.238281-10.238281 0-5.65625 4.585938-10.242188 10.238281-10.242188 5.65625 0 10.242188 4.585938 10.242188 10.242188zm0 0" fill="#54596e"/><path d="m266.238281 208.214844c0 13.195312-10.695312 23.890625-23.890625 23.890625-13.195312 0-23.894531-10.695313-23.894531-23.890625 0-13.199219 10.699219-23.894532 23.894531-23.894532 13.195313 0 23.890625 10.695313 23.890625 23.894532zm0 0" fill="#fff"/><path d="m266.238281 208.214844h6.828125c-.003906-16.972656-13.75-30.71875-30.71875-30.722656-16.96875.003906-30.71875 13.75-30.722656 30.722656.003906 16.96875 13.753906 30.714844 30.722656 30.71875 16.96875-.003906 30.714844-13.75 30.71875-30.71875h-13.652344c-.019531 9.421875-7.644531 17.046875-17.066406 17.066406-9.425781-.019531-17.050781-7.644531-17.066406-17.066406.015625-9.425782 7.640625-17.050782 17.066406-17.066406 9.421875.015624 17.046875 7.640624 17.066406 17.066406zm0 0" fill="#54596e"/><path d="m252.585938 208.214844c0 5.652344-4.582032 10.238281-10.238282 10.238281s-10.242187-4.585937-10.242187-10.238281c0-5.65625 4.585937-10.242188 10.242187-10.242188s10.238282 4.585938 10.238282 10.242188zm0 0" fill="#54596e"/><path d="m157.011719 266.238281c0 18.851563 15.285156 34.136719 34.136719 34.136719 18.847656 0 34.132812-15.285156 34.132812-34.136719zm0 0" fill="#54596e"/><path d="m157.011719 266.238281h-6.824219c.003906 22.625 18.335938 40.957031 40.960938 40.960938 22.621093-.003907 40.953124-18.335938 40.957031-40.960938 0-1.796875-.726563-3.554687-2-4.828125-1.269531-1.269531-3.027344-1.996094-4.824219-1.996094h-68.269531c-1.796875 0-3.554688.726563-4.824219 1.996094-1.273438 1.273438-2 3.03125-2 4.828125h6.824219v6.828125h68.269531v-6.828125h-6.828125c-.003906 7.5625-3.046875 14.347657-8 19.308594-4.960937 4.953125-11.746094 7.996094-19.304687 8-7.5625-.003906-14.347657-3.046875-19.308594-8-4.953125-4.960937-7.996094-11.746094-8-19.308594h-6.828125v6.828125zm0 0" fill="#54596e"/><path d="m204.800781 286.71875c0-3.769531-6.113281-6.824219-13.652343-6.824219-7.542969 0-13.65625 3.054688-13.65625 6.824219 0 3.773438 6.113281 6.828125 13.65625 6.828125 7.539062 0 13.652343-3.054687 13.652343-6.828125zm0 0" fill="#ff927d"/></svg>