<svg height="389pt" viewBox="-3 0 389 389.12" width="389pt" xmlns="http://www.w3.org/2000/svg"><path d="m368.699219 180.90625c0 5.65625-4.582031 10.242188-10.238281 10.242188s-10.242188-4.585938-10.242188-10.242188 4.585938-10.238281 10.242188-10.238281 10.238281 4.582031 10.238281 10.238281zm0 0" fill="#54596e"/><path d="m61.5 146.773438c0 5.65625-4.585938 10.238281-10.238281 10.238281-5.65625 0-10.242188-4.582031-10.242188-10.238281s4.585938-10.238282 10.242188-10.238282c5.652343 0 10.238281 4.582032 10.238281 10.238282zm0 0" fill="#54596e"/><path d="m324.328125 225.28125h-4.867187c.925781-3.261719 1.453124-20.339844 1.453124-23.894531 0-20.734375-16.816406-37.546875-37.546874-37.546875h-16.773438c3.164062-4.699219 5.039062-10.289063 5.039062-16.320313 0-16.554687-13.84375-29.972656-30.933593-29.972656h-22.6875c-53.613281-11.988281-57.738281-59.945313-57.738281-59.945313-35.585938 17.246094-45.546876 45.425782-48.351563 59.945313l-1.140625 21.121094c0 9.617187 3.617188 18.394531 9.59375 25.171875h-21.328125c-20.734375 0-37.546875 16.8125-37.546875 37.546875 0 3.554687.527344 20.636719 1.453125 23.894531h-4.867187c-28.277344 0-51.199219 29.75-51.199219 58.027344s22.921875 58.027344 51.199219 58.027344h17.066406v17.066406c0 9.425781 7.640625 17.066406 17.066406 17.066406s17.066406-7.640625 17.066406-17.066406v-17.066406h215.042969c28.277344 0 51.199219-29.75 51.199219-58.027344s-22.921875-58.027344-51.199219-58.027344zm0 0" fill="#bfad88"/><path d="m324.328125 225.28125v-6.828125h-4.867187v6.828125l6.5625 1.867188c.289062-1.050782.398437-1.835938.53125-2.796876.417968-3.234374.683593-7.980468.886718-12.53125.191406-4.542968.296875-8.660156.296875-10.433593-.003906-24.511719-19.867187-44.367188-44.375-44.375h-16.769531v6.828125l5.660156 3.816406c3.871094-5.738281 6.207032-12.683594 6.203125-20.136719.007813-10.203125-4.292969-19.484375-11.132812-26.097656-6.835938-6.628906-16.28125-10.703125-26.625-10.703125h-22.6875v6.828125l1.492187-6.664063c-12.476562-2.796874-21.789062-7.582031-28.933594-13.144531-10.6875-8.335937-16.570312-18.578125-19.808593-26.824219-1.613281-4.113281-2.546875-7.699218-3.070313-10.207031-.261718-1.25-.421875-2.234375-.511718-2.871093l-.089844-.691407-.015625-.140625-.796875.078125.796875-.066406v-.011719l-.796875.078125.800781-.066406c-.191406-2.230469-1.484375-4.246094-3.429687-5.351563-1.941407-1.105468-4.335938-1.183593-6.351563-.207031-18.890625 9.136719-31.296875 21.421875-39.183594 33.371094-7.90625 11.953125-11.359375 23.5-12.894531 31.421875l-.113281.929688-1.140625 21.117187-.011719.371094c-.003906 11.347656 4.300781 21.753906 11.300781 29.683593l5.121094-4.511718v-6.828125h-21.328125c-24.507813.007812-44.367187 19.863281-44.375 44.375.003906 2.015625.136719 7.136719.390625 12.386719.125 2.613281.28125 5.226562.472656 7.476562.09375 1.125.199219 2.160156.320313 3.101562.132812.960938.242187 1.746094.53125 2.796876l6.566406-1.867188v-6.828125h-4.867187c-16.621094.019531-31.1875 8.699219-41.421876 20.832031-10.25 12.183594-16.570312 28.035156-16.6054682 44.023438.0351562 15.984375 6.3554682 31.835937 16.6054682 44.019531 10.234376 12.132813 24.800782 20.8125 41.421876 20.832031h10.242187v10.238282c.003906 13.199218 10.691406 23.890624 23.890625 23.894531 13.199219-.003907 23.890625-10.695313 23.894531-23.894531v-10.238282h208.214844c16.621094-.019531 31.1875-8.699218 41.417969-20.832031 10.253906-12.183594 16.574218-28.035156 16.605468-44.019531-.03125-15.988282-6.351562-31.839844-16.605468-44.023438-10.230469-12.132812-24.796875-20.8125-41.417969-20.832031v13.652344c11.65625-.019531 22.6875 6.175781 30.988281 15.988281 8.277344 9.761719 13.417969 22.925781 13.382813 35.214844.035156 12.289062-5.105469 25.453125-13.382813 35.210937-8.300781 9.8125-19.332031 16.007813-30.988281 15.988281h-215.042969c-1.796875 0-3.554687.730469-4.828125 2-1.269531 1.269532-1.996093 3.027344-1.996093 4.824219v17.066407c-.011719 5.65625-4.585938 10.230468-10.242188 10.242187-5.652344-.011719-10.226562-4.585937-10.238281-10.242187v-17.066407c0-1.796875-.730469-3.554687-2-4.824219-1.269531-1.273437-3.03125-2-4.828125-2h-17.066406c-11.65625.019532-22.691407-6.175781-30.988282-15.988281-8.277344-9.757812-13.417968-22.925781-13.382812-35.210937-.035156-12.289063 5.105468-25.457032 13.382812-35.214844 8.300782-9.8125 19.332032-16.007812 30.992188-15.988281h4.867187c2.140625 0 4.15625-1 5.445313-2.710938 1.292968-1.714843 1.707031-3.921875 1.121094-5.984375l-.890626.253906.90625-.199218-.015624-.054688-.890626.253906.90625-.199218c-.074218-.261719-.296874-1.976563-.445312-3.941406-.484375-6.03125-.765625-15.871094-.761719-18.136719 0-8.507813 3.425781-16.144531 8.996094-21.722657 5.582031-5.570312 13.21875-8.996093 21.722656-9h21.328125c2.675782 0 5.121094-1.574218 6.21875-4.015624 1.105469-2.4375.671875-5.3125-1.097656-7.324219-4.945312-5.625-7.882812-12.773438-7.890625-20.660157h-6.824219l6.816406.371094 1.136719-21.121094-6.816406-.367187 6.703125 1.292969c1.273438-6.597656 4.203125-16.398438 10.875-26.476563 6.691406-10.085937 17.058594-20.515625 33.753906-28.621093l-2.976562-6.144532-6.800782.585938c.070313.609375 1.1875 13.492187 9.644532 28.289062 4.230468 7.382813 10.339844 15.234375 19.058594 22.03125 8.710937 6.800782 20.015624 12.503906 34.347656 15.703125l1.488281.164063h22.683594c6.742187.003906 12.761719 2.636718 17.125 6.855468 4.351562 4.234376 6.976562 9.941407 6.984375 16.292969-.003906 4.605469-1.414063 8.839844-3.878906 12.503907-1.410157 2.097656-1.550782 4.792968-.363282 7.023437 1.183594 2.230469 3.5 3.617187 6.027344 3.617187h16.773438c8.503906.003907 16.140624 3.429688 21.71875 9 5.570312 5.578126 8.996093 13.214844 9 21.722657.003906 1.535156-.128907 6.730469-.371094 11.726562-.121094 2.503907-.273438 4.996094-.441406 6.976563-.082032.988281-.171876 1.851562-.253907 2.480468l-.109375.734376-.03125.160156.910156.199218-.894531-.253906-.015625.054688.910156.199218-.894531-.253906c-.589843 2.0625-.171875 4.269532 1.117188 5.980469 1.292969 1.710937 3.304687 2.710937 5.449219 2.710937h4.867187zm0 0" fill="#54596e"/><path d="m259.472656 23.894531c0 5.652344-4.582031 10.238281-10.238281 10.238281s-10.242187-4.585937-10.242187-10.238281c0-5.65625 4.585937-10.242187 10.242187-10.242187s10.238281 4.585937 10.238281 10.242187zm0 0" fill="#54596e"/><path d="m300.433594 92.160156c0 5.65625-4.585938 10.238282-10.242188 10.238282-5.652344 0-10.238281-4.582032-10.238281-10.238282s4.585937-10.238281 10.238281-10.238281c5.65625 0 10.242188 4.582031 10.242188 10.238281zm0 0" fill="#54596e"/><path d="m143.421875 10.238281c0 5.65625-4.585937 10.242188-10.242187 10.242188s-10.238282-4.585938-10.238282-10.242188c0-5.652343 4.582032-10.238281 10.238282-10.238281s10.242187 4.585938 10.242187 10.238281zm0 0" fill="#54596e"/><path d="m163.898438 307.199219v58.027343c0 9.425782-7.640626 17.066407-17.066407 17.066407s-17.066406-7.640625-17.066406-17.066407v-58.027343" fill="#bfad88"/><path d="m157.074219 307.199219v58.027343c-.011719 5.652344-4.585938 10.230469-10.242188 10.238282-5.652343-.007813-10.226562-4.585938-10.238281-10.238282v-58.027343c0-3.769531-3.058594-6.824219-6.828125-6.824219s-6.824219 3.054688-6.824219 6.824219v58.027343c.003906 13.199219 10.691406 23.890626 23.890625 23.894532 13.199219-.003906 23.890625-10.695313 23.894531-23.894532v-58.027343c0-3.769531-3.054687-6.824219-6.828124-6.824219-3.769532 0-6.824219 3.054688-6.824219 6.824219zm0 0" fill="#54596e"/><path d="m293.605469 245.761719v112.636719c0 9.425781-7.640625 17.066406-17.066407 17.066406-9.425781 0-17.066406-7.640625-17.066406-17.066406v-71.679688" fill="#bfad88"/><g fill="#54596e"><path d="m286.78125 245.761719v112.636719c-.011719 5.65625-4.585938 10.230468-10.242188 10.242187-5.652343-.011719-10.230468-4.585937-10.238281-10.242187v-71.679688c0-3.769531-3.058593-6.824219-6.828125-6.824219-3.769531 0-6.824218 3.054688-6.824218 6.824219v71.679688c0 13.199218 10.691406 23.890624 23.890624 23.894531 13.199219-.003907 23.890626-10.695313 23.894532-23.894531v-112.636719c0-3.773438-3.058594-6.828125-6.828125-6.828125s-6.824219 3.054687-6.824219 6.828125zm0 0"/><path d="m320.914062 218.453125h-27.308593c-3.769531 0-6.824219 3.058594-6.824219 6.828125s3.054688 6.824219 6.824219 6.824219h27.308593c3.769532 0 6.824219-3.054688 6.824219-6.824219s-3.054687-6.828125-6.824219-6.828125"/><path d="m116.113281 170.667969h40.960938c3.769531 0 6.824219-3.058594 6.824219-6.828125 0-3.769532-3.054688-6.828125-6.824219-6.828125h-40.960938c-3.769531 0-6.828125 3.058593-6.828125 6.828125 0 3.769531 3.058594 6.828125 6.828125 6.828125"/><path d="m61.5 232.105469h61.441406c3.769532 0 6.824219-3.054688 6.824219-6.824219s-3.054687-6.828125-6.824219-6.828125h-61.441406c-3.769531 0-6.828125 3.058594-6.828125 6.828125s3.058594 6.824219 6.828125 6.824219"/><path d="m143.421875 194.558594c0 5.65625-4.585937 10.242187-10.242187 10.242187s-10.238282-4.585937-10.238282-10.242187c0-5.652344 4.582032-10.238282 10.238282-10.238282s10.242187 4.585938 10.242187 10.238282zm0 0"/><path d="m245.820312 194.558594c0 5.65625-4.585937 10.242187-10.242187 10.242187-5.652344 0-10.238281-4.585937-10.238281-10.242187 0-5.652344 4.585937-10.238282 10.238281-10.238282 5.65625 0 10.242187 4.585938 10.242187 10.238282zm0 0"/></g><path d="m157.074219 252.585938v-3.414063c0-13.195313 10.699219-23.890625 23.890625-23.890625 13.195312 0 23.894531 10.695312 23.894531 23.890625v3.414063" fill="#bfad88"/><path d="m163.898438 252.585938v-3.414063c.019531-9.421875 7.648437-17.046875 17.066406-17.066406 9.421875.019531 17.050781 7.644531 17.070312 17.066406v3.414063c0 3.769531 3.054688 6.828124 6.824219 6.828124s6.828125-3.058593 6.828125-6.828124v-3.414063c-.007812-16.96875-13.753906-30.714844-30.722656-30.71875-16.964844.003906-30.714844 13.75-30.71875 30.71875v3.414063c0 3.769531 3.058594 6.828124 6.828125 6.828124s6.824219-3.058593 6.824219-6.828124zm0 0" fill="#54596e"/></svg>