<svg xmlns="http://www.w3.org/2000/svg" viewBox="0 0 73 73" width="73" height="73">
	<style>
		tspan { white-space:pre }
		.shp0 { fill: #2d89ef } 
		.shp1 { fill: #ffffff } 
		.shp2 { fill: #4a4a4a } 
	</style>
	<g id="Page-1">
		<g id="tabler">
			<g id="logo">
				<g id="Group">
					<path id="Shape" class="shp0" d="M69.61 21.2C68.04 14.89 63.11 9.97 56.8 8.39C45.01 6.54 33 6.54 21.2 8.39C14.89 9.97 9.97 14.89 8.39 21.2C6.54 33 6.54 45 8.39 56.8C9.97 63.11 14.89 68.03 21.2 69.61C33 71.46 45.01 71.46 56.8 69.61C63.11 68.03 68.04 63.11 69.61 56.8C71.46 45 71.46 33 69.61 21.2Z" />
					<path id="Path" fill-rule="evenodd" class="shp1" d="M38.33 41.33C35.5 45.74 31.71 49.49 27.24 52.3C25.78 53.19 23.96 53.23 22.46 52.42C20.96 51.62 20.02 50.08 20 48.4C19.98 46.72 20.89 45.16 22.37 44.32C24.69 42.89 26.74 41.08 28.45 38.98C26.7 36.93 24.65 35.15 22.37 33.69C20.11 32.37 19.37 29.5 20.71 27.28C22.06 25.06 24.98 24.34 27.24 25.66C31.7 28.44 35.49 32.16 38.33 36.55C39.22 38.02 39.22 39.86 38.33 41.33Z" />
					<path id="Path" fill-rule="evenodd" class="shp1" d="M54.2 51L42.8 51C40.69 51 39 49.98 39 48C39 46.02 40.71 45 42.8 45L54.2 45C56.31 45 58 46.02 58 48C58 49.98 56.29 51 54.2 51Z" />
				</g>
				<path id="top" fill-rule="evenodd" class="shp2" d="M829.78 334.1C830.23 334.1 830.64 334.31 831.01 334.74C831.38 335.18 831.56 335.74 831.56 336.45C831.56 337.31 831.09 338.04 830.14 338.63C829.2 339.22 828.14 339.52 826.95 339.52C824.97 339.52 823.3 339.1 821.94 338.25C820.58 337.4 819.9 335.6 819.9 332.85L819.9 319.6L817.69 319.6C816.92 319.6 816.28 319.34 815.77 318.83C815.26 318.32 815 317.68 815 316.91C815 316.18 815.26 315.56 815.77 315.06C816.28 314.57 816.92 314.32 817.69 314.32L819.9 314.32L819.9 311.25C819.9 310.42 820.18 309.72 820.74 309.16C821.3 308.6 821.99 308.32 822.82 308.32C823.62 308.32 824.3 308.6 824.84 309.16C825.38 309.72 825.66 310.42 825.66 311.25L825.66 314.32L829.06 314.32C829.83 314.32 830.47 314.58 830.98 315.09C831.5 315.6 831.75 316.24 831.75 317.01C831.75 317.74 831.5 318.36 830.98 318.86C830.47 319.35 829.83 319.6 829.06 319.6L825.66 319.6L825.66 332.61C825.66 333.28 825.83 333.77 826.18 334.07C826.54 334.38 827.02 334.53 827.62 334.53C827.88 334.53 828.23 334.46 828.68 334.34C829.06 334.18 829.43 334.1 829.78 334.1ZM857.82 313.36C858.65 313.36 859.34 313.63 859.88 314.18C860.42 314.72 860.7 315.42 860.7 316.29L860.7 336.59C860.7 337.42 860.42 338.12 859.88 338.68C859.34 339.24 858.65 339.52 857.82 339.52C856.98 339.52 856.3 339.25 855.78 338.7C855.25 338.16 854.97 337.47 854.94 336.64C854.14 337.57 853.06 338.36 851.7 339.02C850.34 339.67 848.9 340 847.4 340C845.19 340 843.19 339.43 841.4 338.3C839.61 337.16 838.19 335.58 837.15 333.57C836.11 331.55 835.59 329.26 835.59 326.7C835.59 324.14 836.1 321.85 837.13 319.82C838.15 317.78 839.55 316.2 841.33 315.06C843.1 313.93 845.06 313.36 847.21 313.36C848.74 313.36 850.18 313.64 851.53 314.2C852.87 314.76 854.01 315.47 854.94 316.34L854.94 316.29C854.94 315.46 855.21 314.76 855.75 314.2C856.3 313.64 856.98 313.36 857.82 313.36ZM848.12 334.72C850.2 334.72 851.9 333.96 853.21 332.44C854.52 330.92 855.18 329.01 855.18 326.7C855.18 324.4 854.52 322.48 853.21 320.94C851.9 319.41 850.2 318.64 848.12 318.64C846.07 318.64 844.39 319.41 843.08 320.94C841.77 322.48 841.11 324.4 841.11 326.7C841.11 329.01 841.76 330.92 843.06 332.44C844.35 333.96 846.04 334.72 848.12 334.72ZM880.23 313.36C882.44 313.36 884.44 313.93 886.23 315.06C888.02 316.2 889.44 317.78 890.48 319.79C891.52 321.81 892.04 324.1 892.04 326.66C892.04 329.22 891.53 331.51 890.5 333.54C889.48 335.58 888.08 337.16 886.3 338.3C884.53 339.43 882.57 340 880.42 340C878.89 340 877.44 339.69 876.08 339.06C874.72 338.44 873.59 337.68 872.7 336.78L872.7 337.07C872.7 337.9 872.42 338.6 871.88 339.16C871.34 339.72 870.65 340 869.82 340C868.98 340 868.3 339.73 867.75 339.18C867.21 338.64 866.94 337.94 866.94 337.07L866.94 306.93C866.94 306.1 867.21 305.4 867.75 304.84C868.3 304.28 868.98 304 869.82 304C870.65 304 871.34 304.28 871.88 304.84C872.42 305.4 872.7 306.1 872.7 306.93L872.7 316.96C873.46 316 874.54 315.16 875.91 314.44C877.29 313.72 878.73 313.36 880.23 313.36ZM879.51 334.72C881.56 334.72 883.24 333.95 884.55 332.42C885.86 330.88 886.52 328.96 886.52 326.66C886.52 324.35 885.87 322.44 884.58 320.92C883.28 319.4 881.59 318.64 879.51 318.64C877.43 318.64 875.74 319.4 874.42 320.92C873.11 322.44 872.46 324.35 872.46 326.66C872.46 328.96 873.11 330.88 874.42 332.42C875.74 333.95 877.43 334.72 879.51 334.72ZM903.08 336.59C903.08 337.42 902.8 338.12 902.24 338.68C901.68 339.24 900.98 339.52 900.15 339.52C899.35 339.52 898.68 339.24 898.14 338.68C897.59 338.12 897.32 337.42 897.32 336.59L897.32 306.93C897.32 306.1 897.6 305.4 898.16 304.84C898.72 304.28 899.42 304 900.25 304C901.05 304 901.72 304.28 902.26 304.84C902.81 305.4 903.08 306.1 903.08 306.93L903.08 336.59ZM932.36 326.08C932.33 326.85 932.02 327.47 931.45 327.95C930.87 328.43 930.2 328.67 929.43 328.67L913.59 328.67C913.98 330.56 914.86 332.04 916.23 333.11C917.61 334.18 919.16 334.72 920.89 334.72C922.2 334.72 923.22 334.6 923.96 334.36C924.7 334.12 925.28 333.86 925.71 333.59C926.14 333.32 926.44 333.14 926.6 333.04C927.18 332.75 927.72 332.61 928.23 332.61C928.9 332.61 929.48 332.85 929.96 333.33C930.44 333.81 930.68 334.37 930.68 335.01C930.68 335.87 930.23 336.66 929.34 337.36C928.44 338.1 927.24 338.72 925.74 339.23C924.23 339.74 922.71 340 921.18 340C918.49 340 916.14 339.44 914.14 338.32C912.14 337.2 910.6 335.66 909.51 333.69C908.42 331.72 907.88 329.5 907.88 327.04C907.88 324.29 908.46 321.87 909.61 319.79C910.76 317.71 912.28 316.12 914.17 315.02C916.06 313.91 918.07 313.36 920.22 313.36C922.33 313.36 924.32 313.94 926.19 315.09C928.06 316.24 929.56 317.79 930.68 319.74C931.8 321.7 932.36 323.81 932.36 326.08ZM920.22 318.64C916.5 318.64 914.31 320.38 913.64 323.87L926.22 323.87L926.22 323.54C926.09 322.19 925.43 321.04 924.25 320.08C923.06 319.12 921.72 318.64 920.22 318.64ZM950.5 313.36C951.46 313.36 952.27 313.63 952.93 314.18C953.58 314.72 953.91 315.36 953.91 316.1C953.91 317.09 953.66 317.83 953.14 318.33C952.63 318.82 952.02 319.07 951.32 319.07C950.84 319.07 950.3 318.96 949.69 318.74C949.59 318.7 949.38 318.64 949.04 318.54C948.7 318.45 948.34 318.4 947.96 318.4C947.13 318.4 946.33 318.66 945.56 319.17C944.79 319.68 944.16 320.46 943.66 321.5C943.17 322.54 942.92 323.78 942.92 325.22L942.92 336.59C942.92 337.42 942.65 338.12 942.1 338.68C941.56 339.24 940.87 339.52 940.04 339.52C939.21 339.52 938.52 339.24 937.98 338.68C937.43 338.12 937.16 337.42 937.16 336.59L937.16 316.77C937.16 315.94 937.43 315.24 937.98 314.68C938.52 314.12 939.21 313.84 940.04 313.84C940.87 313.84 941.56 314.12 942.1 314.68C942.65 315.24 942.92 315.94 942.92 316.77L942.92 317.39C943.66 316.08 944.71 315.08 946.09 314.39C947.46 313.7 948.94 313.36 950.5 313.36Z" />
			</g>
		</g>
	</g>
</svg>